<mxfile host="app.diagrams.net" modified="2023-04-27T09:31:29.280Z" agent="Mozilla/5.0 (Windows NT 10.0; Win64; x64) AppleWebKit/537.36 (KHTML, like Gecko) Chrome/112.0.0.0 Safari/537.36" etag="f6NfvsH2bAY2VGDVsN3H" version="21.2.3" type="device">
  <diagram name="Страница 1" id="C1k6RaMO9sW6olVsBU-2">
    <mxGraphModel dx="1434" dy="756" grid="1" gridSize="10" guides="1" tooltips="1" connect="1" arrows="1" fold="1" page="1" pageScale="1" pageWidth="827" pageHeight="1169" math="0" shadow="0">
      <root>
        <mxCell id="0" />
        <mxCell id="1" parent="0" />
        <mxCell id="OLjOM5v3IjLy7553hlLm-3" value="" style="edgeStyle=orthogonalEdgeStyle;rounded=0;orthogonalLoop=1;jettySize=auto;html=1;" edge="1" parent="1" source="OLjOM5v3IjLy7553hlLm-1" target="OLjOM5v3IjLy7553hlLm-2">
          <mxGeometry relative="1" as="geometry" />
        </mxCell>
        <mxCell id="OLjOM5v3IjLy7553hlLm-1" value="UpdateApp" style="rounded=0;whiteSpace=wrap;html=1;" vertex="1" parent="1">
          <mxGeometry x="354.5" y="200" width="120" height="60" as="geometry" />
        </mxCell>
        <mxCell id="OLjOM5v3IjLy7553hlLm-5" value="" style="edgeStyle=orthogonalEdgeStyle;rounded=0;orthogonalLoop=1;jettySize=auto;html=1;entryX=0.5;entryY=0;entryDx=0;entryDy=0;" edge="1" parent="1" source="OLjOM5v3IjLy7553hlLm-2" target="OLjOM5v3IjLy7553hlLm-6">
          <mxGeometry relative="1" as="geometry">
            <mxPoint x="414" y="400" as="targetPoint" />
          </mxGeometry>
        </mxCell>
        <mxCell id="OLjOM5v3IjLy7553hlLm-2" value="Update check &lt;br&gt;(on Web)" style="whiteSpace=wrap;html=1;rounded=0;" vertex="1" parent="1">
          <mxGeometry x="354.5" y="300" width="120" height="60" as="geometry" />
        </mxCell>
        <mxCell id="OLjOM5v3IjLy7553hlLm-8" value="" style="edgeStyle=orthogonalEdgeStyle;rounded=0;orthogonalLoop=1;jettySize=auto;html=1;" edge="1" parent="1" source="OLjOM5v3IjLy7553hlLm-6" target="OLjOM5v3IjLy7553hlLm-7">
          <mxGeometry relative="1" as="geometry" />
        </mxCell>
        <mxCell id="OLjOM5v3IjLy7553hlLm-11" value="" style="edgeStyle=orthogonalEdgeStyle;rounded=0;orthogonalLoop=1;jettySize=auto;html=1;" edge="1" parent="1" source="OLjOM5v3IjLy7553hlLm-6" target="OLjOM5v3IjLy7553hlLm-10">
          <mxGeometry relative="1" as="geometry" />
        </mxCell>
        <mxCell id="OLjOM5v3IjLy7553hlLm-6" value="&lt;span style=&quot;color: rgb(0, 0, 0); font-family: Helvetica; font-size: 12px; font-style: normal; font-variant-ligatures: normal; font-variant-caps: normal; font-weight: 400; letter-spacing: normal; orphans: 2; text-align: center; text-indent: 0px; text-transform: none; widows: 2; word-spacing: 0px; -webkit-text-stroke-width: 0px; background-color: rgb(251, 251, 251); text-decoration-thickness: initial; text-decoration-style: initial; text-decoration-color: initial; float: none; display: inline !important;&quot;&gt;If an update is available&amp;nbsp;&lt;/span&gt;" style="rhombus;whiteSpace=wrap;html=1;" vertex="1" parent="1">
          <mxGeometry x="319" y="400" width="191" height="70" as="geometry" />
        </mxCell>
        <mxCell id="OLjOM5v3IjLy7553hlLm-14" value="" style="edgeStyle=orthogonalEdgeStyle;rounded=0;orthogonalLoop=1;jettySize=auto;html=1;" edge="1" parent="1" source="OLjOM5v3IjLy7553hlLm-7" target="OLjOM5v3IjLy7553hlLm-13">
          <mxGeometry relative="1" as="geometry" />
        </mxCell>
        <mxCell id="OLjOM5v3IjLy7553hlLm-7" value="download update" style="whiteSpace=wrap;html=1;" vertex="1" parent="1">
          <mxGeometry x="83.5" y="405" width="120" height="60" as="geometry" />
        </mxCell>
        <mxCell id="OLjOM5v3IjLy7553hlLm-9" value="yes" style="text;html=1;align=center;verticalAlign=middle;resizable=0;points=[];autosize=1;strokeColor=none;fillColor=none;" vertex="1" parent="1">
          <mxGeometry x="255" y="405" width="40" height="30" as="geometry" />
        </mxCell>
        <mxCell id="OLjOM5v3IjLy7553hlLm-10" value="launch the main application" style="whiteSpace=wrap;html=1;" vertex="1" parent="1">
          <mxGeometry x="620" y="730" width="120" height="60" as="geometry" />
        </mxCell>
        <mxCell id="OLjOM5v3IjLy7553hlLm-12" value="no" style="text;html=1;align=center;verticalAlign=middle;resizable=0;points=[];autosize=1;strokeColor=none;fillColor=none;" vertex="1" parent="1">
          <mxGeometry x="540" y="408" width="40" height="30" as="geometry" />
        </mxCell>
        <mxCell id="OLjOM5v3IjLy7553hlLm-16" value="" style="edgeStyle=orthogonalEdgeStyle;rounded=0;orthogonalLoop=1;jettySize=auto;html=1;entryX=0.5;entryY=0;entryDx=0;entryDy=0;" edge="1" parent="1" source="OLjOM5v3IjLy7553hlLm-13" target="OLjOM5v3IjLy7553hlLm-15">
          <mxGeometry relative="1" as="geometry" />
        </mxCell>
        <mxCell id="OLjOM5v3IjLy7553hlLm-13" value="suggest updating" style="whiteSpace=wrap;html=1;" vertex="1" parent="1">
          <mxGeometry x="83.5" y="515" width="120" height="60" as="geometry" />
        </mxCell>
        <mxCell id="OLjOM5v3IjLy7553hlLm-18" value="" style="edgeStyle=orthogonalEdgeStyle;rounded=0;orthogonalLoop=1;jettySize=auto;html=1;exitX=0;exitY=0.5;exitDx=0;exitDy=0;" edge="1" parent="1" source="OLjOM5v3IjLy7553hlLm-15" target="OLjOM5v3IjLy7553hlLm-17">
          <mxGeometry relative="1" as="geometry" />
        </mxCell>
        <mxCell id="OLjOM5v3IjLy7553hlLm-20" value="" style="edgeStyle=orthogonalEdgeStyle;rounded=0;orthogonalLoop=1;jettySize=auto;html=1;exitX=1;exitY=0.5;exitDx=0;exitDy=0;entryX=0;entryY=0.5;entryDx=0;entryDy=0;" edge="1" parent="1" source="OLjOM5v3IjLy7553hlLm-15" target="OLjOM5v3IjLy7553hlLm-10">
          <mxGeometry relative="1" as="geometry">
            <mxPoint x="570" y="730" as="targetPoint" />
          </mxGeometry>
        </mxCell>
        <mxCell id="OLjOM5v3IjLy7553hlLm-15" value="will the client update the app?" style="rhombus;whiteSpace=wrap;html=1;" vertex="1" parent="1">
          <mxGeometry x="306.5" y="575" width="213.5" height="85" as="geometry" />
        </mxCell>
        <mxCell id="OLjOM5v3IjLy7553hlLm-25" value="" style="edgeStyle=orthogonalEdgeStyle;rounded=0;orthogonalLoop=1;jettySize=auto;html=1;" edge="1" parent="1" source="OLjOM5v3IjLy7553hlLm-17" target="OLjOM5v3IjLy7553hlLm-26">
          <mxGeometry relative="1" as="geometry">
            <mxPoint x="246.5" y="810" as="targetPoint" />
          </mxGeometry>
        </mxCell>
        <mxCell id="OLjOM5v3IjLy7553hlLm-17" value="deleting old files" style="whiteSpace=wrap;html=1;" vertex="1" parent="1">
          <mxGeometry x="186.5" y="710" width="120" height="60" as="geometry" />
        </mxCell>
        <mxCell id="OLjOM5v3IjLy7553hlLm-21" value="no" style="text;html=1;align=center;verticalAlign=middle;resizable=0;points=[];autosize=1;strokeColor=none;fillColor=none;" vertex="1" parent="1">
          <mxGeometry x="530" y="588" width="40" height="30" as="geometry" />
        </mxCell>
        <mxCell id="OLjOM5v3IjLy7553hlLm-23" value="yes" style="text;html=1;align=center;verticalAlign=middle;resizable=0;points=[];autosize=1;strokeColor=none;fillColor=none;" vertex="1" parent="1">
          <mxGeometry x="261.5" y="588" width="40" height="30" as="geometry" />
        </mxCell>
        <mxCell id="OLjOM5v3IjLy7553hlLm-31" value="" style="edgeStyle=orthogonalEdgeStyle;rounded=0;orthogonalLoop=1;jettySize=auto;html=1;entryX=0.5;entryY=1;entryDx=0;entryDy=0;" edge="1" parent="1" source="OLjOM5v3IjLy7553hlLm-26" target="OLjOM5v3IjLy7553hlLm-10">
          <mxGeometry relative="1" as="geometry">
            <mxPoint x="730" y="800" as="targetPoint" />
          </mxGeometry>
        </mxCell>
        <mxCell id="OLjOM5v3IjLy7553hlLm-26" value="installing a new version of the program" style="whiteSpace=wrap;html=1;" vertex="1" parent="1">
          <mxGeometry x="186.5" y="810" width="120" height="60" as="geometry" />
        </mxCell>
      </root>
    </mxGraphModel>
  </diagram>
</mxfile>
